<?xml version="1.0" encoding="UTF-8" standalone="no"?>
<!--
 * Copyright 2020 Google
 * SPDX-License-Identifier: Apache-2.0
-->
<!-- Created with Inkscape (http://www.inkscape.org/) -->

<svg
   xmlns:dc="http://purl.org/dc/elements/1.1/"
   xmlns:cc="http://creativecommons.org/ns#"
   xmlns:rdf="http://www.w3.org/1999/02/22-rdf-syntax-ns#"
   xmlns:svg="http://www.w3.org/2000/svg"
   xmlns="http://www.w3.org/2000/svg"
   xmlns:sodipodi="http://sodipodi.sourceforge.net/DTD/sodipodi-0.dtd"
   xmlns:inkscape="http://www.inkscape.org/namespaces/inkscape"
   width="160.21838mm"
   height="203.15787mm"
   viewBox="0 0 160.21838 203.15787"
   version="1.1"
   id="svg8"
   inkscape:version="0.92.4 (5da689c313, 2019-01-14)"
   sodipodi:docname="secondflower.svg">
  <defs
     id="defs2" />
  <sodipodi:namedview
     id="base"
     pagecolor="#ffffff"
     bordercolor="#666666"
     borderopacity="1.0"
     inkscape:pageopacity="0.0"
     inkscape:pageshadow="2"
     inkscape:zoom="0.52251952"
     inkscape:cx="1167.1977"
     inkscape:cy="615.26207"
     inkscape:document-units="mm"
     inkscape:current-layer="layer1"
     showgrid="false"
     inkscape:window-width="1440"
     inkscape:window-height="730"
     inkscape:window-x="0"
     inkscape:window-y="40"
     inkscape:window-maximized="1"
     fit-margin-top="-0.4"
     fit-margin-left="0"
     fit-margin-right="0"
     fit-margin-bottom="0" />
  <metadata
     id="metadata5">
    <rdf:RDF>
      <cc:Work
         rdf:about="">
        <dc:format>image/svg+xml</dc:format>
        <dc:type
           rdf:resource="http://purl.org/dc/dcmitype/StillImage" />
        <dc:title></dc:title>
      </cc:Work>
    </rdf:RDF>
  </metadata>
  <g
     inkscape:label="Layer 1"
     inkscape:groupmode="layer"
     id="layer1"
     transform="translate(-40.508853,-87.972092)">
    <ellipse
       id="path3715"
       cx="104.6994"
       cy="135.22618"
       rx="17.764881"
       ry="18.898809"
       style="stroke-width:0.26458332" />
    <path
       style="fill:none;stroke:#000000;stroke-width:0.26458332px;stroke-linecap:butt;stroke-linejoin:miter;stroke-opacity:1"
       d="m 98.701985,124.40072 c -8.121458,-2.08948 -17.632681,-0.70455 -23.254395,-9.04338 -4.958502,-8.37532 -3.693016,-19.955648 9.818524,-27.646892 6.97303,1.189128 13.909882,2.510912 18.861896,11.110434 6.25087,7.452008 -2.34778,16.883948 -5.426025,25.579838 z"
       id="path3721"
       inkscape:connector-curvature="0"
       sodipodi:nodetypes="ccccc" />
    <path
       style="fill:none;stroke:#000000;stroke-width:0.26458332px;stroke-linecap:butt;stroke-linejoin:miter;stroke-opacity:1"
       d="m 111.36271,124.91748 c -19.650178,-30.889281 2.95071,-37.21613 6.97632,-33.848065 14.32516,1.39161 14.00136,9.544275 10.59367,19.120285 -2.66698,15.00993 -11.15024,11.60162 -17.56999,14.72778 z"
       id="path3823"
       inkscape:connector-curvature="0"
       sodipodi:nodetypes="cccc" />
    <path
       style="fill:none;stroke:#000000;stroke-width:0.26458332px;stroke-linecap:butt;stroke-linejoin:miter;stroke-opacity:1"
       d="m 118.85579,130.86027 c 0.045,-12.09794 5.39973,-15.85185 10.07691,-20.67057 5.2981,-10.03858 14.09279,-3.46836 21.96248,-1.29191 0.1694,8.12095 -0.84245,15.88753 -7.49308,21.96248 -7.31291,6.08433 -15.87928,3.39447 -24.54631,0 z"
       id="path3825"
       inkscape:connector-curvature="0"
       sodipodi:nodetypes="ccccc" />
    <path
       style="fill:none;stroke:#000000;stroke-width:0.26458332px;stroke-linecap:butt;stroke-linejoin:miter;stroke-opacity:1"
       d="m 116.27197,143.00423 c 5.84322,-4.24713 10.79792,-10.2713 19.89543,-8.00985 10.99532,0.41884 9.86502,7.91095 13.43587,12.66073 -0.74158,15.39782 -10.11618,13.52958 -18.8619,12.91911 -11.91773,1.63208 -14.89513,-6.17286 -14.4694,-17.56999 z"
       id="path3836"
       inkscape:connector-curvature="0"
       sodipodi:nodetypes="ccccc" />
    <path
       style="fill:none;stroke:#000000;stroke-width:0.26458332px;stroke-linecap:butt;stroke-linejoin:miter;stroke-opacity:1"
       d="m 90.433757,135.51115 c -2.858875,-6.50527 -2.342536,-14.85157 -12.143962,-17.56999 -8.180458,-1.23847 -15.942954,-1.40218 -19.378663,9.56014 -2.976329,12.91471 3.648928,16.73319 13.694254,17.3116 7.914653,1.50043 14.04605,-1.16007 17.828371,-9.30175 z"
       id="path3838"
       inkscape:connector-curvature="0"
       sodipodi:nodetypes="ccccc" />
    <path
       style="fill:none;stroke:#000000;stroke-width:0.26458332px;stroke-linecap:butt;stroke-linejoin:miter;stroke-opacity:1"
       d="m 94.826253,146.62158 c 2.081799,3.86099 4.223351,7.66223 0.258381,17.56999 -3.408258,6.84369 -7.669412,12.30963 -19.895425,4.90926 -1.680628,-4.93872 -7.196231,-6.71922 2.067057,-20.67057 3.324361,-6.17396 11.033725,-2.70091 17.569987,-1.80868 z"
       id="path3840"
       inkscape:connector-curvature="0"
       sodipodi:nodetypes="ccccc" />
    <path
       style="fill:none;stroke:#000000;stroke-width:0.26458332px;stroke-linecap:butt;stroke-linejoin:miter;stroke-opacity:1"
       d="m 106.71183,148.43026 c -5.0725,4.057 -12.913036,5.34597 -11.627198,15.76131 0.540849,6.40595 0.630314,13.00938 11.885578,14.72778 6.0815,-3.85766 16.00315,-4.14947 13.17749,-16.27807 -2.018,-7.19763 -7.31943,-11.11183 -13.43587,-14.21102 z"
       id="path3842"
       inkscape:connector-curvature="0"
       sodipodi:nodetypes="ccccc" />
    <path
       style="fill:none;stroke:#000000;stroke-width:0.26458332px;stroke-linecap:butt;stroke-linejoin:miter;stroke-opacity:1"
       d="m 116.27197,143.00423 c -0.27392,1.70858 -0.54783,3.41715 -0.82174,5.12573 0,0.16879 -0.11935,0.38701 0,0.50636 0.11935,0.11935 0.38701,-0.11935 0.50636,0 0.25318,0.25318 -0.25318,1.26591 0,1.51909 0.11935,0.11935 0.38701,-0.11936 0.50636,0 0.11935,0.11935 -0.11935,0.387 0,0.50635 0.11935,0.11936 0.3554,-0.0755 0.50636,0 0.2135,0.10676 0.29286,0.39962 0.50636,0.50637 0.15097,0.0755 0.38701,-0.11935 0.50636,0 0.11935,0.11935 -0.11935,0.38701 0,0.50636 0.11935,0.11935 0.38701,-0.11935 0.50637,0 0.11935,0.11935 -0.11936,0.38701 0,0.50636 0.11935,0.11935 0.387,-0.11935 0.50635,0 0.11936,0.11935 -0.11935,0.38701 0,0.50636 0.11936,0.11935 0.38702,-0.11935 0.50637,0 1.04767,1.04768 -1.60099,-0.041 0.50636,1.01272 0.15096,0.0755 0.38701,-0.11935 0.50636,0 0.25318,0.25318 -0.25318,1.2659 0,1.51908 0.11935,0.11935 0.38701,-0.11935 0.50636,0 0.2387,0.2387 -0.15097,0.71079 0,1.01272 0.10675,0.2135 0.39961,0.29286 0.50636,0.50636 0.10038,0.20077 -0.10352,1.41557 0,1.51908 0.11935,0.11936 0.38701,-0.11934 0.50636,0 0.11935,0.11936 -0.0534,0.34624 0,0.50637 1.22259,3.66778 -0.14599,-0.79834 1.01272,1.51908 0.0755,0.15097 0,0.33757 0,0.50636 0,0.16879 0,0.33757 0,0.50636 0,1.01272 0,2.02544 0,3.03816 0,0.16879 0,0.33758 0,0.50636 0,0.16879 -0.11935,0.38701 0,0.50636 0.11935,0.11936 0.38701,-0.11935 0.50636,0 0.11935,0.11936 -0.11935,0.38702 0,0.50637 0.11935,0.11934 0.38701,-0.11935 0.50636,0 0.0204,0.0204 0,1.83948 0,2.02544 0,0.23875 -0.0229,2.50885 0,2.5318 0.11935,0.11935 0.38701,-0.11935 0.50636,0 0.25318,0.25318 -0.25318,1.2659 0,1.51908 0.11935,0.11935 0.38701,-0.11935 0.50636,0 0.11935,0.11935 0,0.33758 0,0.50636 0,0.16879 0,0.33758 0,0.50636 0,1.3503 0,2.7006 0,4.05089 0,2.21929 0,2.35807 0,5.06361 0,0.49059 -0.10064,2.73623 0,3.03816 0.11935,0.35805 0.38701,0.65467 0.50636,1.01272 0.0534,0.16013 -0.0534,0.34624 0,0.50636 0.11935,0.35805 0.38701,0.65467 0.50636,1.01272 0.10065,0.30193 0,2.54757 0,3.03817 0,0.16878 0,0.33757 0,0.50636 0,0.16878 -0.11935,0.38701 0,0.50636 0.11936,0.11935 0.38701,-0.11935 0.50636,0 0.0163,0.0163 0,1.39628 0,1.51908 0,0.18596 -0.0204,2.00507 0,2.02544 0.11936,0.11935 0.38702,-0.11935 0.50637,0 0.11934,0.11935 -0.11935,0.38701 0,0.50637 0.11934,0.11934 0.38701,-0.11936 0.50636,0 0.0407,0.0406 0,2.13324 0,2.5318 0,1.68787 0,3.37574 0,5.0636 0,0.26479 0.0666,1.8923 0,2.02545 -0.2135,0.427 -0.79923,0.58572 -1.01273,1.01272 -0.0915,0.18312 0,2.17961 0,2.5318 0,0.26479 -0.0666,1.8923 0,2.02544 0.10676,0.2135 0.39961,0.29286 0.50637,0.50636 0.0755,0.15097 -0.11935,0.38702 0,0.50637 0.11934,0.11935 0.38701,-0.11935 0.50636,0 0.11935,0.11935 -0.11935,0.387 0,0.50636 0.2387,0.2387 0.77402,-0.2387 1.01272,0 0.11935,0.11935 -0.11935,0.38701 0,0.50636 0.11935,0.11935 0.50636,-0.16879 0.50636,0 0,0.16878 -0.43088,-0.15097 -0.50636,0 -0.15913,0.31825 0.15913,1.70718 0,2.02544 -0.10675,0.2135 -0.39961,0.29286 -0.50636,0.50636 -0.0755,0.15097 0,0.33757 0,0.50636 0,0.16879 0,0.33757 0,0.50636 0,1.01272 0,2.02544 0,3.03817 0,3.37573 0,6.75147 0,10.12721 0,1.18151 0,2.36302 0,3.54452 0,0.16879 0.11935,0.38701 0,0.50636 -0.11935,0.11935 -0.38701,-0.11935 -0.50636,0 -0.11935,0.11935 0,0.33758 0,0.50637 0,1.1815 0,2.36301 0,3.54452 0,3.20695 0,6.4139 0,9.62085 0,0.12281 0.0163,1.5028 0,1.51908 -0.11935,0.11935 -0.38702,-0.11935 -0.50636,0 -0.11935,0.11935 0,0.33758 0,0.50636 0,0.16879 0,0.33758 0,0.50636 0,0.35891 0.0654,2.90725 0,3.03817 -0.10676,0.2135 -0.39961,0.29286 -0.50637,0.50636 -0.15096,0.30194 0.15097,0.71079 0,1.01272 -0.10674,0.2135 -0.39961,0.29286 -0.50636,0.50636 -0.0755,0.15097 0.11936,0.38701 0,0.50636 -0.11935,0.11935 -0.38701,-0.11935 -0.50636,0 -0.11935,0.11935 0.11935,0.38701 0,0.50636 -0.11935,0.11935 -0.38701,-0.11935 -0.50636,0 -0.11935,0.11935 0.11935,0.38701 0,0.50636 -1.04768,1.04768 0.041,-1.60099 -1.01272,0.50636 -0.0755,0.15097 0.11935,0.38702 0,0.50637 -0.11935,0.11934 -0.38701,-0.11935 -0.50636,0 -0.2387,0.2387 0.15097,0.71078 0,1.01272 -0.10675,0.2135 -0.39961,0.29286 -0.50636,0.50636 -0.10038,0.20077 0.10352,1.41556 0,1.51908 -0.11935,0.11935 -0.38701,-0.11935 -0.50636,0 -0.2387,0.2387 0.2387,0.77402 0,1.01272 -0.11935,0.11935 -0.38701,-0.11935 -0.50636,0 -0.2387,0.2387 0.33757,1.01272 0,1.01272 -0.16879,0 0.16879,-0.50636 0,-0.50636 -0.88841,0 -0.33179,1.16995 -0.50636,1.51908 -0.10675,0.2135 -0.39961,0.29286 -0.50636,0.50636 -0.0755,0.15097 0,0.33758 0,0.50636 0,0.1688 0,0.33758 0,0.50636 0,0.84394 0,1.68788 0,2.5318 0,0.1688 0,0.33758 0,0.50638 0,0.16878 0.0755,0.35539 0,0.50636 -0.10675,0.21349 -0.39961,0.29284 -0.50636,0.50636 -0.15097,0.30192 0.2387,0.77401 0,1.01272 -0.11935,0.11935 -0.38701,-0.11935 -0.50636,0 -0.11935,0.11935 0.11935,0.38701 0,0.50636 -0.11935,0.11935 -0.33758,0 -0.50636,0 0,0.16878 0.11935,0.38701 0,0.50636 -0.11935,0.11935 -0.38701,-0.11935 -0.50637,0 -0.23869,0.23871 0.23871,0.77401 0,1.01272 -0.11935,0.11935 -0.387,-0.11936 -0.50635,0 -0.11936,0.11935 0.11935,0.387 0,0.50636 -0.11936,0.11935 -0.38702,-0.11936 -0.50637,0 -0.2387,0.2387 0.2387,0.77401 0,1.01272 -0.11935,0.11935 -0.38701,-0.11936 -0.50636,0 -0.2387,0.2387 0.2387,0.77401 0,1.01272 -0.11935,0.11935 -0.38701,-0.11936 -0.50636,0 -0.2387,0.2387 0.2387,0.77401 0,1.01272 -0.11935,0.11935 -0.38701,-0.11936 -0.50636,0 0,1.3503 0.16879,-0.16878 -0.50636,0.50635 -0.12184,0.12185 0.12185,1.9036 0,2.02544 -0.11935,0.11936 -0.38701,-0.11935 -0.50636,0 -0.11935,0.11936 0.0755,0.35542 0,0.50636 -0.10675,0.21352 -0.39961,0.29287 -0.50636,0.50636 -0.0755,0.15097 0.11935,0.38703 0,0.50636 -0.11935,0.11936 -0.38701,-0.11933 -0.50636,0 -0.11935,0.11936 0.11935,0.38703 0,0.50639 -0.11935,0.11932 -0.38701,-0.11936 -0.50636,0 -0.2387,0.23868 0.15097,0.71077 0,1.01272 -0.10675,0.21349 -0.39961,0.29284 -0.50636,0.50636 -0.0755,0.15094 0.0755,0.35538 0,0.50636 -0.10675,0.21349 -0.39961,0.29284 -0.50636,0.50636 -0.0771,0.15409 0,1.29103 0,1.51907"
       id="path3844"
       inkscape:connector-curvature="0" />
    <path
       style="fill:none;stroke:#000000;stroke-width:0.26458332px;stroke-linecap:butt;stroke-linejoin:miter;stroke-opacity:1"
       d="m 126.59016,203.82963 c 4.03861,-9.89973 2.46225,-18.55044 14.17811,-28.35619 10.12721,-5.82541 17.72262,-6.10294 25.82439,-6.58269 -6.72285,19.08403 -22.61032,27.85786 -40.0025,34.93888 z"
       id="path3846"
       inkscape:connector-curvature="0"
       sodipodi:nodetypes="cccc" />
    <path
       style="fill:none;stroke:#000000;stroke-width:0.26458332px;stroke-linecap:butt;stroke-linejoin:miter;stroke-opacity:1"
       d="m 127.60289,223.5777 c -8.62377,-11.14394 -13.96773,-18.90937 -31.394364,-26.33075 -16.570146,1.75344 -18.070098,9.03758 -24.811672,16.7099 18.735345,18.44493 37.470686,9.82251 56.206036,9.62085 z"
       id="path3848"
       inkscape:connector-curvature="0"
       sodipodi:nodetypes="cccc" />
    <path
       style="fill:none;stroke:#000000;stroke-width:0.26458332px;stroke-linecap:butt;stroke-linejoin:miter;stroke-opacity:1"
       d="m 128.10925,233.70491 c 6.22342,-17.64384 21.70878,-20.88022 40.00249,-19.74806 1.00169,16.10964 -12.65902,26.33075 -12.65902,26.33075 -13.1703,1.90069 -20.64812,3.7411 -27.34347,-6.58269 z"
       id="path3850"
       inkscape:connector-curvature="0"
       sodipodi:nodetypes="cccc" />
  </g>
  <g
     inkscape:label="Layer 2"
     inkscape:groupmode="layer"
     id="layer2"
     transform="translate(-40.508853,-87.972092)">
    <path
       style="fill:none;stroke:#000000;stroke-width:0.26458332px;stroke-linecap:butt;stroke-linejoin:miter;stroke-opacity:1"
       d="m 40.508853,289.40458 c 1.181508,0 2.363015,0 3.544525,0 0.168786,0 0.387009,0.11935 0.50636,0 0.119351,-0.11935 -0.119351,-0.38701 0,-0.50636 0.119351,-0.11935 0.355394,0.0755 0.50636,0 2.317414,-1.15869 -2.148697,0.20987 1.519084,-1.01272 0.318701,-0.10623 2.075386,0 2.531803,0 0.168785,0 0.387008,0.11935 0.506359,0 0.119351,-0.11935 -0.119351,-0.387 0,-0.50636 0.119351,-0.11935 0.337574,0 0.506363,0 1.012719,0 2.025441,0 3.038162,0 1.012722,0 2.025444,0 3.038163,0 0.228044,0 1.36498,-0.077 1.519084,0 0.2135,0.10676 0.279908,0.43088 0.50636,0.50636 0.320251,0.10676 0.69247,-0.10676 1.012722,0 0.452903,0.15097 0.585721,0.79923 1.012721,1.01272 0.150966,0.0755 0.355391,-0.0755 0.50636,0 0.2135,0.10676 0.292859,0.39963 0.506362,0.50636 0.318257,0.15915 1.707182,-0.15912 2.025441,0 0.2135,0.10676 0.292859,0.39963 0.506362,0.50636 0.150966,0.0755 0.355391,-0.0755 0.50636,0 0.2135,0.10676 0.292859,0.39963 0.506359,0.50636 0.154104,0.077 1.29104,0 1.519084,0 1.01272,0 2.025441,0 3.038163,0 0.228045,0 1.36498,-0.077 1.519082,0 0.2135,0.10676 0.292862,0.39963 0.506362,0.50636 0.150177,0.0751 2.548395,0 3.038163,0 1.350295,0 2.700591,0 4.050884,0 0.506362,0 1.038707,0.16012 1.519084,0 0.226452,-0.0755 0.292859,-0.3996 0.50636,-0.50636 0.319447,-0.1597 2.212356,0.15973 2.531803,0 0.2135,-0.10673 0.292859,-0.3996 0.506362,-0.50636 0.150966,-0.0755 0.346234,0.0534 0.50636,0 1.745533,-0.58185 0.375094,-0.50636 1.519081,-0.50636 1.012722,0 2.025444,0 3.038165,0 0.228042,0 1.364978,-0.077 1.519082,0 0.2135,0.10676 0.292859,0.39963 0.506359,0.50636 0.150969,0.0755 0.337574,0 0.506363,0 0.168785,0 0.337574,0 0.506359,0 1.012722,0 2.025444,0 3.038166,0 0.168785,0 0.337571,0 0.506359,0 0.168786,0 0.387012,0.11935 0.50636,0 0.119351,-0.11935 -0.119348,-0.38701 0,-0.50636 0.119351,-0.11935 0.355393,0.0755 0.506362,0 0.2135,-0.10673 0.337574,-0.33756 0.50636,-0.50636 0.168788,-0.16878 0.39961,-0.29287 0.506362,-0.50636 0.07548,-0.15097 -0.119351,-0.38701 0,-0.50636 0.119348,-0.11935 0.346234,0.0534 0.506359,0 0.35805,-0.11935 0.654669,-0.387 1.012722,-0.50636 0.160126,-0.0534 0.387009,0.11936 0.50636,0 0.119351,-0.11935 -0.119351,-0.387 0,-0.50636 0.119351,-0.11935 0.387011,0.11936 0.506362,0 0.119348,-0.11935 -0.119351,-0.387 0,-0.50636 0.119348,-0.11935 0.337569,0 0.506359,0 0.16879,0 0.33757,0 0.50636,0 2.19423,0 4.38846,0 6.58269,0 1.01272,0 2.02544,0 3.03816,0 0.16879,0 0.33758,0 0.50637,0 0.16878,0 0.35539,-0.0755 0.50636,0 0.2135,0.10676 0.29285,0.3996 0.50635,0.50636 0.30194,0.15097 0.71079,-0.15097 1.01273,0 0.2135,0.10676 0.29286,0.3996 0.50636,0.50636 0.31945,0.15973 2.21235,-0.15973 2.5318,0 1.67939,1.67939 -0.4774,-0.23871 1.01272,0.50636 0.427,0.21349 0.58572,0.79923 1.01272,1.01272 0.31826,0.15915 1.70719,-0.15912 2.02545,0 0.2135,0.10676 0.29286,0.39963 0.50636,0.50636 0.15096,0.0755 0.38701,-0.11935 0.50636,0 0.11935,0.11935 -0.11935,0.38701 0,0.50636 0.25318,0.25318 1.2659,-0.25318 1.51908,0 0.11935,0.11935 -0.11935,0.38701 0,0.50636 0.10352,0.10353 1.31831,-0.10038 1.51908,0 0.2135,0.10676 0.29286,0.39963 0.50636,0.50636 0.15097,0.0755 0.33758,0 0.50636,0 0.16879,0 0.33758,0 0.50636,0 0.5529,0 2.20434,0.10917 2.53181,0 0.35805,-0.11935 0.65467,-0.38701 1.01272,-0.50636 0.3187,-0.10623 2.07539,0 2.5318,0 0.16879,0 0.38701,0.11935 0.50636,0 0.11935,-0.11935 -0.11935,-0.38701 0,-0.50636 0.2387,-0.23868 0.71079,0.15097 1.01272,0 0.2135,-0.10673 0.29286,-0.3996 0.50636,-0.50636 0.15097,-0.0755 0.3554,0.0755 0.50636,0 0.42701,-0.21349 0.58572,-0.79923 1.01273,-1.01272 0.31825,-0.15912 1.70718,0.15912 2.02544,0 0.2135,-0.10673 0.27991,-0.43087 0.50636,-0.50636 0.2592,-0.0864 2.67616,0 3.03816,0 1.68787,0 3.37574,0 5.06361,0 1.01272,0 2.02544,0 3.03816,0 0.16879,0 0.33758,0 0.50637,0 0.16878,0 0.35539,0.0755 0.50635,0 0.21351,-0.10676 0.29286,-0.3996 0.50637,-0.50636 0.15096,-0.0755 0.35539,0.0755 0.50636,0 0.2135,-0.10676 0.29286,-0.3996 0.50636,-0.50636 0.15096,-0.0755 0.38701,0.11936 0.50636,0 1.04768,-1.04767 -1.60099,0.041 0.50636,-1.01272 0.31826,-0.15912 1.70718,0.15912 2.02544,0 0.2135,-0.10676 0.29286,-0.3996 0.50636,-0.50636 0.15097,-0.0755 0.35539,0.0755 0.50636,0 0.2135,-0.10676 0.29286,-0.3996 0.50636,-0.50636 0.30194,-0.15097 0.69247,0.10676 1.01272,0 0.35805,-0.11935 0.65467,-0.387 1.01273,-0.50636 0.19703,-0.0657 1.4405,0.0786 1.51908,0 0.11935,-0.11935 -0.11935,-0.387 0,-0.50636 0.11935,-0.11935 0.38701,0.11936 0.50636,0 0.11935,-0.11935 -0.11935,-0.387 0,-0.50635 0.11935,-0.11936 0.33757,0 0.50636,0 0.16879,0 0.33757,0 0.50636,0 1.3503,0 2.70059,0 4.05088,0 0.23875,0 2.50886,-0.023 2.53181,0 1.04768,1.04767 -1.60099,-0.041 0.50636,1.01271 0.15097,0.0755 0.34623,-0.0534 0.50636,0 0.35805,0.11936 0.65467,0.38701 1.01272,0.50636 0.16013,0.0534 0.35539,-0.0755 0.50636,0 0.2135,0.10676 0.27991,0.43088 0.50636,0.50636 0.28003,0.0933 2.52823,0 3.03817,0 0.16878,0 0.33757,0 0.50636,0 0.16878,0 0.35539,-0.0755 0.50636,0 0.2135,0.10676 0.29286,0.3996 0.50636,0.50636 0.18311,0.0916 2.17961,0 2.5318,0 0.16879,0 0.38701,-0.11935 0.50636,0 0.11935,0.11936 -0.11935,0.38701 0,0.50636 0.12185,0.12184 1.9036,-0.12184 2.02545,0 0.11934,0.11936 -0.11936,0.38701 0,0.50636 0.11934,0.11936 0.33757,0 0.50636,0 1.1815,0 2.36301,0 3.54452,0 0.26479,0 1.8923,-0.0666 2.02544,0 0.2135,0.10676 0.29286,0.3996 0.50636,0.50636 0.15411,0.077 1.29104,0 1.51908,0 1.18151,0 2.36302,0 3.54453,0 0.50636,0 1.03871,0.16013 1.51908,0 0.22645,-0.0755 0.27991,-0.43087 0.50636,-0.50636 0.27223,-0.0907 1.59673,0 2.02544,0 0.16879,0 0.33758,0 0.50637,0 0.16878,0 0.50636,-0.16878 0.50636,0 0,0.16878 -0.67515,0 -0.50636,0 0.33757,0 0.67514,0 1.01272,0 0.1228,0 1.50279,0.0164 1.51908,0 0.11935,-0.11935 -0.0755,-0.35539 0,-0.50636 1.05368,-2.10735 -0.035,0.54131 1.01272,-0.50636 0.11935,-0.11935 -0.0755,-0.35539 0,-0.50636 0.10675,-0.21349 0.39961,-0.29286 0.50636,-0.50636 0.0755,-0.15097 -0.16878,-0.50636 0,-0.50636 0.16879,0 0,0.33759 0,0.50636"
       id="path3852"
       inkscape:connector-curvature="0" />
  </g>
</svg>
